{"title":"Don_Bosco_1936","uid":9611096,"size":627852748,"categoryP":"video","categoryS":"movies","magnet":"?xt=urn:btih:f2c74235bb3fb5e504fa4f774bd75662206eb69e&amp;dn=Don_Bosco_1936&amp;tr=udp%3A%2F%2Ftracker.openbittorrent.com%3A80&amp;tr=udp%3A%2F%2Fopen.demonii.com%3A1337&amp;tr=udp%3A%2F%2Ftracker.coppersurfer.tk%3A6969&amp;tr=udp%3A%2F%2Fexodus.desync.com%3A6969","seeders":1,"leechers":1,"uploader":"pg168","files":2,"time":1392320036,"description":"Film biography has always been a popular genre in Italy with subjects ranging from Saint Francis to Giuseppe Verdi. This fascist-era movie is a reverent and appealing story of Giovanni Bosco (1815-1888) who became the founder of the Salesian teaching order which ministered to homeless boys and which is still very much in operation today. The movie is never maudlin (with a couple of lapses) and has some wonderful lyric-pastoral moments from John Bosco's Piedmontese childhood. Goffredo Alessandrini directed with a sure hand and Giampaolo Rosmino plays the adult Don Bosco with conviction. The music score is by the important modern Italian composer Gian Francesco Malipiero. One can note the fascist militia in Saint Peter's Square during the newsreel excerpts of Don Bosco's canonization ceremony at the end.\n\nGeneral\nComplete name                            : (Divx Ita) Don Bosco (G Alessandrini 1935 - G P Rosmino, F Mayer).avi\nFormat                                   : AVI\nFormat/Info                              : Audio Video Interleave\nFormat profile                           : OpenDML\nFormat settings                          : rec\nFile size                                : 599 MiB\nDuration                                 : 1h 26mn\nOverall bit rate mode                    : Variable\nOverall bit rate                         : 972 Kbps\nWriting application                      : AVI-Mux GUI 1.17.8.3, Feb 16 201019:42:50\n\nVideo\nID                                       : 0\nFormat                                   : MPEG-4 Visual\nFormat profile                           : Advanced Simple@L5\nFormat settings, BVOP                    : 1\nFormat settings, QPel                    : No\nFormat settings, GMC                     : No warppoints\nFormat settings, Matrix                  : Custom\nCodec ID                                 : XVID\nCodec ID/Hint                            : XviD\nDuration                                 : 1h 26mn\nBit rate                                 : 839 Kbps\nWidth                                    : 448 pixels\nHeight                                   : 336 pixels\nDisplay aspect ratio                     : 4:3\nFrame rate                               : 25.000 fps\nColor space                              : YUV\nChroma subsampling                       : 4:2:0\nBit depth                                : 8 bits\nScan type                                : Progressive\nCompression mode                         : Lossy\nBits/(Pixel*Frame)                       : 0.223\nStream size                              : 517 MiB (86%)\nWriting library                          : XviD 1.2.1 (UTC 2008-12-04)\n\nAudio\nID                                       : 1\nFormat                                   : MPEG Audio\nFormat version                           : Version 1\nFormat profile                           : Layer 3\nMode                                     : Joint stereo\nMode extension                           : MS Stereo\nCodec ID                                 : 55\nCodec ID/Hint                            : MP3\nDuration                                 : 1h 26mn\nBit rate mode                            : Variable\nBit rate                                 : 128 Kbps\nChannel(s)                               : 2 channels\nSampling rate                            : 48.0 KHz\nCompression mode                         : Lossy\nStream size                              : 76.3 MiB (13%)\nAlignment                                : Aligned on interleaves\nInterleave, duration                     : 24 ms (0.60 video frame)\nInterleave, preload duration             : 188 ms\nTitle                                    : Project T01 2_0ch 192Kbps DELAY 0ms\nWriting library                          : LAME3.90.\nEncoding settings                        : -m j -V 4 -q 2 -lowpass 17.6 --abr 128\n","torrent":{"xt":"urn:btih:f2c74235bb3fb5e504fa4f774bd75662206eb69e","amp;dn":"Don_Bosco_1936","amp;tr":["udp%3A%2F%2Ftracker.openbittorrent.com%3A80","udp%3A%2F%2Fopen.demonii.com%3A1337","udp%3A%2F%2Ftracker.coppersurfer.tk%3A6969","udp%3A%2F%2Fexodus.desync.com%3A6969"],"infoHash":"f2c74235bb3fb5e504fa4f774bd75662206eb69e","infoHashBuffer":{"type":"Buffer","data":[242,199,66,53,187,63,181,229,4,250,79,119,75,215,86,98,32,110,182,158]},"announce":[],"urlList":[]}}